<?xml version="1.0" encoding="iso-8859-1"?>
<!-- Generator: Adobe Illustrator 17.1.0, SVG Export Plug-In . SVG Version: 6.00 Build 0)  -->
<!DOCTYPE svg PUBLIC "-//W3C//DTD SVG 1.1//EN" "http://www.w3.org/Graphics/SVG/1.1/DTD/svg11.dtd">
<svg xmlns="http://www.w3.org/2000/svg" xmlns:xlink="http://www.w3.org/1999/xlink" version="1.1" id="Capa_1" x="0px" y="0px" viewBox="0 0 560.548 560.548" style="enable-background:new 0 0 560.548 560.548;" xml:space="preserve" width="512px" height="512px">
<path d="M407.134,267.924l-26.083-17.321V37.719C381.051,16.921,364.13,0,343.332,0s-37.719,16.921-37.719,37.719v90.492  c-2.229-0.758-4.615-1.176-7.097-1.176h-31.422c-10.278,0-18.939,7.054-21.399,16.574c-2.425-0.917-5.053-1.42-7.796-1.42h-31.422  c-2.482,0-4.868,0.417-7.097,1.176v-51.83c0-16.669-13.562-30.231-30.231-30.231s-30.231,13.562-30.231,30.231v267.847  c0,11.65,1.669,23.224,4.961,34.401c0.039,0.133,0.082,0.265,0.128,0.395l20.715,58.213v86.249c0,3.898,2.986,7.146,6.871,7.474  l171.2,14.407c0.21,0.018,0.42,0.026,0.629,0.026c1.872,0,3.686-0.701,5.076-1.979c1.544-1.42,2.424-3.423,2.424-5.521v-89.972  c1.898-2.362,3.45-5.036,4.54-7.972l24.991-56.96l39.135-91.939c0.06-0.141,0.116-0.284,0.167-0.429  C424.738,291.732,419.548,276.167,407.134,267.924z M320.613,37.719c0-12.527,10.192-22.719,22.719-22.719  s22.719,10.191,22.719,22.719v209.406h-45.438v-37.962v-4.1v-55.93V37.719z M311.275,262.125v6.857h-15.206  c-3.284,0-6.312-1.456-8.384-3.814c3.519-1.938,7.558-3.043,11.851-3.043H311.275z M259.996,149.133  c0-3.914,3.184-7.098,7.098-7.098h31.422c3.914,0,7.097,3.184,7.097,7.097v55.93v4.1v37.962h-6.077  c-9.932,0-19.015,3.679-25.979,9.735c-0.281,0.214-0.544,0.446-0.79,0.695c-0.813,0.745-1.592,1.525-2.34,2.335h-2.471  c-4.389,0-7.959-3.57-7.959-7.959v-42.769v-4.1v-28.43v-12.346V149.133z M206.476,157.189h31.422c3.914,0,7.097,3.184,7.097,7.097  v12.346v28.43v4.1v42.769c0,4.389-3.57,7.959-7.959,7.959h-29.698c-4.389,0-7.959-3.57-7.959-7.959v-68.966v-6.333v-12.346  C199.379,160.373,202.563,157.189,206.476,157.189z M405.687,300.562l-39.004,91.632l-25.052,57.099  c-0.067,0.154-0.13,0.311-0.187,0.469c-1.968,5.458-7.189,9.125-12.991,9.125c-4.142,0-7.5,3.358-7.5,7.5c0,4.143,3.358,7.5,7.5,7.5  c2.564,0,5.066-0.362,7.468-1.011v72.016l-156.2-13.145v-60.981c3.939,1.998,8.351,3.122,12.942,3.122h110.988  c4.142,0,7.5-3.357,7.5-7.5c0-4.142-3.358-7.5-7.5-7.5H192.663c-6.082,0-11.529-4.074-13.248-9.908  c-0.004-0.015-0.01-0.03-0.015-0.045c-0.018-0.059-0.038-0.117-0.057-0.175s-0.036-0.117-0.057-0.175l-21.079-59.234  c-2.848-9.739-4.292-19.819-4.292-29.966V91.535c0-8.398,6.833-15.231,15.231-15.231s15.231,6.833,15.231,15.231v72.751v12.346  v6.333v68.966c0,12.659,10.3,22.959,22.959,22.959h29.698c5.949,0,11.376-2.275,15.459-6c2.664,2.43,5.902,4.239,9.482,5.206  c-1.348,3.983-2.091,8.244-2.091,12.678c0,21.862,17.787,39.649,39.649,39.649h16.259l0,5.876  c-24.316,3.633-43.025,24.657-43.025,49.969v39.72c0,4.143,3.358,7.5,7.5,7.5s7.5-3.357,7.5-7.5v-39.72  c0-19.588,15.937-35.524,35.525-35.524c4.142,0,7.5-3.358,7.5-7.5v-12.821h29.725c4.142,0,7.5-3.358,7.5-7.5  c0-4.143-3.358-7.5-7.5-7.5h-60.984c-13.591,0-24.649-11.058-24.649-24.649c0-3.84,0.884-7.477,2.456-10.72  c4.815,4.932,11.511,7.928,18.726,7.928h22.706c4.142,0,7.5-3.358,7.5-7.5v-14.357h14.409v19.876c0,4.142,3.358,7.5,7.5,7.5  s7.5-3.358,7.5-7.5v-19.876h15.604l27.549,18.294C405.449,284.811,408.247,293.067,405.687,300.562z" fill="#FFFFFF"/>
<g>
</g>
<g>
</g>
<g>
</g>
<g>
</g>
<g>
</g>
<g>
</g>
<g>
</g>
<g>
</g>
<g>
</g>
<g>
</g>
<g>
</g>
<g>
</g>
<g>
</g>
<g>
</g>
<g>
</g>
</svg>
