<?xml version="1.0" encoding="iso-8859-1"?>
<!-- Generator: Adobe Illustrator 18.0.0, SVG Export Plug-In . SVG Version: 6.00 Build 0)  -->
<!DOCTYPE svg PUBLIC "-//W3C//DTD SVG 1.1//EN" "http://www.w3.org/Graphics/SVG/1.1/DTD/svg11.dtd">
<svg xmlns="http://www.w3.org/2000/svg" xmlns:xlink="http://www.w3.org/1999/xlink" version="1.1" id="Capa_1" x="0px" y="0px" viewBox="0 0 434.506 434.506" style="enable-background:new 0 0 434.506 434.506;" xml:space="preserve" width="512px" height="512px">
<path d="M430.297,63.232c-4.604-11.44-13.325-23.927-24.559-35.161C380.946,3.279,353.585-6.751,342.098,4.737  c-2.966,2.967-6.083,8.673-4.093,19.015c3.431,17.833,0.688,35.714-7.722,50.347c-4.828,8.4-10.674,16.201-17.376,23.188  L191.814,223.563l-4.925-4.925l-5.12,5.12l-3.889-3.889l1.768-1.768c1.563-1.563,1.563-4.095,0-5.657  c-1.561-1.562-4.096-1.562-5.656,0l-9.192,9.192c-1.563,1.563-1.563,4.095,0,5.657c0.78,0.781,1.805,1.171,2.828,1.171  s2.048-0.391,2.828-1.171l1.768-1.768l3.889,3.889l-5.12,5.12l5.256,5.256l-1.744,1.818l-5.293-5.293l-5.12,5.12l-3.889-3.889  l1.768-1.768c1.563-1.563,1.563-4.095,0-5.657c-1.561-1.562-4.096-1.562-5.656,0l-9.192,9.192c-1.563,1.563-1.563,4.095,0,5.657  c0.78,0.781,1.805,1.171,2.828,1.171s2.048-0.391,2.828-1.171l1.768-1.768l3.889,3.889l-5.12,5.12l5.624,5.624l-1.744,1.818  l-5.661-5.661l-5.119,5.119l-3.889-3.889l1.767-1.767c1.563-1.563,1.563-4.095,0-5.657c-1.561-1.562-4.096-1.562-5.656,0  l-9.192,9.192c-1.563,1.563-1.563,4.095,0,5.657c0.78,0.781,1.805,1.171,2.828,1.171s2.048-0.391,2.828-1.171l1.768-1.768  l3.889,3.889l-5.12,5.12l5.998,5.998L45.314,376.321c-2.611,2.715-3.281,6.635-2.05,9.982l-21.965,21.965l-17.933,6.442  c-1.289,0.463-2.252,1.554-2.551,2.891c-0.3,1.337,0.106,2.734,1.075,3.703l12.03,12.03c0.758,0.758,1.779,1.171,2.828,1.171  c0.291,0,0.584-0.032,0.874-0.097c1.337-0.299,2.428-1.262,2.891-2.551l6.443-17.934l21.967-21.967  c1.037,0.382,2.136,0.591,3.265,0.591c0.016,0,0.03,0,0.046,0c2.563,0,4.972-0.996,6.782-2.806l9.771-9.775  c-0.273,1.905-0.416,3.836-0.415,5.784c0.008,10.824,4.221,20.993,11.863,28.635c7.896,7.896,18.265,11.844,28.638,11.843  c10.369-0.001,20.743-3.949,28.638-11.843l19.134-19.134c1.825,0.507,3.682,0.779,5.529,0.779c5.378,0,10.648-2.108,14.638-6.097  l39.435-39.434l11.497,11.497c2.123,2.123,4.946,3.292,7.948,3.292s5.825-1.169,7.949-3.292c4.382-4.382,4.382-11.514-0.001-15.896  l-18.922-18.922l1.781-1.781l18.922,18.922c2.123,2.123,4.946,3.292,7.948,3.292c3.002,0,5.825-1.169,7.949-3.292  c4.382-4.382,4.382-11.514-0.001-15.896L242.397,309.5l1.781-1.781l18.922,18.922c2.123,2.123,4.946,3.292,7.948,3.292  s5.825-1.169,7.949-3.292c4.382-4.382,4.382-11.514-0.001-15.896l-18.921-18.921l96.519-96.52  c7.65-7.65,11.863-17.821,11.863-28.638c0-10.818-4.213-20.988-11.863-28.638c-6.774-6.774-15.526-10.847-24.953-11.692l5.263-5.05  c7.115-6.82,15.064-12.75,23.628-17.625c14.632-8.332,32.271-11.11,49.667-7.83c10.258,1.933,15.926-1.172,18.873-4.119  C434.906,85.879,435.34,75.765,430.297,63.232z M15.117,423.217l-3.109-3.11l4.853-1.744L15.117,423.217z M181.906,245.447  l5.018,5.018l-1.781,1.781l-4.981-4.981L181.906,245.447z M199.617,266.72l1.781-1.781l28.285,28.285l-1.781,1.781L199.617,266.72z   M193.96,261.064l-3.161-3.161l1.781-1.781l3.161,3.161L193.96,261.064z M164.596,263.493l4.657,4.657l-1.781,1.781l-4.62-4.62  L164.596,263.493z M181.939,284.398l1.781-1.781l28.285,28.285l-1.781,1.781L181.939,284.398z M176.283,278.742l-3.154-3.154  l1.781-1.781l3.154,3.154L176.283,278.742z M53.36,384.085c-0.383,0.383-0.823,0.463-1.145,0.463  c-0.313-0.03-0.723-0.08-1.112-0.469c-0.614-0.614-0.624-1.586-0.019-2.216l96.209-100.317l4.282,4.282l-49.853,49.875l-0.039-0.039  L53.36,384.085z M131.856,408.729c-12.674,12.672-33.293,12.67-45.963,0c-6.132-6.132-9.513-14.295-9.52-22.984  c-0.006-7.95,2.895-15.593,8.172-21.542l72.687-72.717l3.153,3.153l-71.02,71.021c-5.279,5.278-8.191,12.308-8.201,19.804  c0.01,7.486,2.922,14.516,8.201,19.794c5.459,5.459,12.627,8.188,19.799,8.188c7.169,0,14.34-2.73,19.798-8.188l71.021-71.021  l3.182,3.182L131.856,408.729z M194.327,328.579l-44.775,44.775c0.4-2.683,1.624-5.159,3.573-7.109l39.435-39.435L194.327,328.579z   M147.467,360.589c-3.915,3.916-6.071,9.126-6.071,14.672c0,1.875,0.27,3.709,0.759,5.49L123.306,399.6  c-3.776,3.776-8.799,5.855-14.142,5.855c-5.344,0-10.366-2.08-14.143-5.855c-3.771-3.77-5.851-8.794-5.857-14.137  c0.007-5.353,2.087-10.377,5.857-14.146l71.021-71.021l20.86,20.86L147.467,360.589z M171.157,384.276  c-1.989,1.99-4.498,3.211-7.138,3.603l44.804-44.805l1.768,1.768L171.157,384.276z M237.985,356.339  c-1.225,1.225-3.359,1.225-4.584,0l-86.449-86.45l4.582-4.583l86.45,86.45C239.247,353.02,239.247,355.076,237.985,356.339z   M219.063,321.521l-3.182-3.182l1.781-1.781l3.182,3.182L219.063,321.521z M255.662,338.662c-1.225,1.225-3.359,1.225-4.584,0  l-86.449-86.45l4.582-4.583l86.45,86.45C256.925,335.342,256.925,337.398,255.662,338.662z M236.74,303.844l-3.182-3.182  l1.781-1.781l3.182,3.182L236.74,303.844z M273.34,320.984c-1.225,1.225-3.359,1.225-4.584,0l-86.449-86.45l4.582-4.583l86.45,86.45  C274.603,317.665,274.603,319.721,273.34,320.984z M243.811,275.559l79.903-79.903c1.229-1.228,2.86-1.904,4.597-1.904  c0.267,0,0.53,0.021,0.79,0.053l-83.522,83.522L243.811,275.559z M335.335,187.571c-2.126-1.182-4.525-1.819-7.024-1.819  c-3.873,0-7.515,1.508-10.253,4.247l-79.903,79.903l-20.86-20.86l96.223-96.223c3.778-3.777,8.8-5.858,14.141-5.858  c0.001,0,0.003,0,0.004,0c5.341,0.001,10.362,2.082,14.14,5.858s5.857,8.799,5.857,14.142c0,5.343-2.08,10.365-5.857,14.142  L335.335,187.571z M360.457,166.665c0,8.681-3.381,16.842-9.52,22.981l-96.52,96.521l-3.182-3.182l96.222-96.223  c5.289-5.288,8.201-12.319,8.201-19.799c0-7.479-2.912-14.511-8.201-19.799c-5.287-5.287-12.317-8.2-19.795-8.201  c-0.002,0-0.003,0-0.005,0c-7.478,0-14.509,2.913-19.797,8.201l-96.224,96.223l-3.161-3.161l96.499-96.541  c6.139-6.139,14.301-9.52,22.981-9.52c8.68,0,16.842,3.381,22.98,9.52C357.076,149.822,360.457,157.984,360.457,166.665z   M423.416,86.054c-2.872,2.87-7.964,2.625-11.734,1.915c-19.256-3.632-38.829-0.53-55.108,8.739  c-9.135,5.201-17.615,11.527-25.206,18.804L319.289,127.1c-7.509,1.63-14.407,5.364-19.971,10.928l-96.499,96.54l-5.348-5.348  l121.209-126.396c7.15-7.454,13.388-15.777,18.538-24.739c9.366-16.295,12.436-36.128,8.642-55.845  c-0.732-3.807-0.998-8.953,1.895-11.847c6.855-6.853,30.031,1.039,52.327,23.335c10.488,10.488,18.583,22.027,22.793,32.49  C426.591,75.453,426.788,82.682,423.416,86.054z" fill="#FFFFFF"/>
<g>
</g>
<g>
</g>
<g>
</g>
<g>
</g>
<g>
</g>
<g>
</g>
<g>
</g>
<g>
</g>
<g>
</g>
<g>
</g>
<g>
</g>
<g>
</g>
<g>
</g>
<g>
</g>
<g>
</g>
</svg>
