<?xml version="1.0" encoding="iso-8859-1"?>
<!-- Generator: Adobe Illustrator 16.0.0, SVG Export Plug-In . SVG Version: 6.00 Build 0)  -->
<!DOCTYPE svg PUBLIC "-//W3C//DTD SVG 1.1//EN" "http://www.w3.org/Graphics/SVG/1.1/DTD/svg11.dtd">
<svg xmlns="http://www.w3.org/2000/svg" xmlns:xlink="http://www.w3.org/1999/xlink" version="1.1" id="Capa_1" x="0px" y="0px" width="512px" height="512px" viewBox="0 0 497.182 497.182" style="enable-background:new 0 0 497.182 497.182;" xml:space="preserve">
<g>
	<path d="M376.956,237.143l58.504-57.637v255.468c0,34.352-27.852,62.207-62.207,62.207H62.209   c-34.352,0-62.207-27.855-62.207-62.207V123.932c0-34.355,27.855-62.211,62.207-62.211h255.453l-59.848,58.234H58.597v318.359   h318.359V237.143z M377.469,56.755l62.967,62.985l20.993-20.986l-62.968-62.985L377.469,56.755z M434.211,0l-20.989,20.99   l62.968,62.968l20.989-20.989L434.211,0z M171.288,262.987l188.91-188.953l62.969,62.984l-188.91,188.938l-91.703,28.677   L171.288,262.987z M202.596,265.369l10.77,10.953l161.938-159.184l-10.77-10.953L202.596,265.369z" fill="#34495e"/>
</g>
<g>
</g>
<g>
</g>
<g>
</g>
<g>
</g>
<g>
</g>
<g>
</g>
<g>
</g>
<g>
</g>
<g>
</g>
<g>
</g>
<g>
</g>
<g>
</g>
<g>
</g>
<g>
</g>
<g>
</g>
</svg>
