<?xml version="1.0" encoding="iso-8859-1"?>
<!-- Generator: Adobe Illustrator 18.1.1, SVG Export Plug-In . SVG Version: 6.00 Build 0)  -->
<svg xmlns="http://www.w3.org/2000/svg" xmlns:xlink="http://www.w3.org/1999/xlink" version="1.1" id="Capa_1" x="0px" y="0px" viewBox="0 0 25.904 25.904" style="enable-background:new 0 0 25.904 25.904;" xml:space="preserve" width="512px" height="512px">
<g>
	<g>
		<g>
			<rect x="9.012" y="12" width="10" height="2" fill="#34495e"/>
			<path d="M13.022,22H3.012c-0.551,0-1-0.449-1-1V4h20v8.435c0.414-0.203,0.867-0.322,1.343-0.322     c0.224,0,0.443,0.028,0.657,0.075V3c0-1.657-1.344-3-3-3h-18c-1.656,0-3,1.343-3,3v18c0,1.656,1.344,3,3,3h9.425L13.022,22z" fill="#34495e"/>
			<rect x="9.012" y="8" width="10" height="2" fill="#34495e"/>
			<polygon points="9.012,18 16.108,18 18.118,16 9.012,16    " fill="#34495e"/>
			<rect x="5.012" y="12" width="2" height="2" fill="#34495e"/>
			<rect x="5.012" y="8" width="2" height="2" fill="#34495e"/>
			<rect x="5.012" y="16" width="2" height="2" fill="#34495e"/>
		</g>
	</g>
	<g>
		<path d="M25.576,15.934l-1.517-1.52c-0.418-0.421-1.094-0.424-1.507-0.009l-1.22,1.228l3.03,3.043    l1.221-1.229C25.998,17.032,25.995,16.354,25.576,15.934z" fill="#34495e"/>
		<path d="M15.357,21.502c-0.067,0.055-0.124,0.123-0.15,0.213L14.15,25.33    c-0.047,0.157-0.003,0.327,0.112,0.443c0.086,0.085,0.2,0.131,0.317,0.131c0.042,0,0.085-0.006,0.126-0.019l3.602-1.062    c0.084-0.024,0.149-0.076,0.204-0.138l4.939-4.915l-3.163-3.175L15.357,21.502z M15.836,24.618l-0.422-0.425l0.599-2.047    l1.532,0.316l0.303,1.562L15.836,24.618z" fill="#34495e"/>
	</g>
</g>
<g>
</g>
<g>
</g>
<g>
</g>
<g>
</g>
<g>
</g>
<g>
</g>
<g>
</g>
<g>
</g>
<g>
</g>
<g>
</g>
<g>
</g>
<g>
</g>
<g>
</g>
<g>
</g>
<g>
</g>
</svg>
